<mxfile host="app.diagrams.net" modified="2024-04-09T14:54:08.896Z" agent="Mozilla/5.0 (Windows NT 10.0; Win64; x64) AppleWebKit/537.36 (KHTML, like Gecko) Chrome/120.0.0.0 Safari/537.36" version="24.2.3" etag="SWJSKRNyVKKm5D3jb9V4" type="github">
  <diagram name="페이지-1" id="6--gZeF1wEDO903Dqqr6">
    <mxGraphModel>
      <root>
        <mxCell id="0" />
        <mxCell id="1" parent="0" />
      </root>
    </mxGraphModel>
  </diagram>
</mxfile>
